# Blender v3.4.1 OBJ File: ''
# www.blender.org
mtllib maxwell.mtl
o dingus
v -0.540765 0.073860 0.149776
v -0.347998 -0.011375 0.159993
v -0.404606 0.127886 0.256844
v -0.469286 0.019517 0.172789
v -0.369861 0.018002 0.200907
v -0.486080 0.530882 0.132642
v -0.352091 0.513699 0.193410
v -0.336557 0.596064 0.084224
v -0.420550 0.525097 0.175617
v -0.431551 0.587000 0.085243
v -0.506358 0.073208 -0.209577
v -0.369990 0.080684 -0.284811
v -0.458447 0.080245 -0.260460
v -0.407871 0.038431 -0.227863
v -0.348060 0.031836 -0.251384
v -0.208604 0.632010 -0.183299
v -0.300817 0.620621 -0.220696
v 0.333916 0.113299 0.218689
v 0.169888 0.076767 0.235914
v 0.215530 -0.016402 0.199670
v 0.280365 0.106306 0.245255
v 0.292998 0.019360 0.240740
v 0.195845 -0.005888 0.235541
v 0.332319 0.011555 0.211289
v 0.072091 0.584760 0.159711
v 0.119278 0.455907 0.207208
v 0.150385 0.538759 0.210747
v 0.259343 0.074595 -0.232766
v 0.245209 -0.009624 -0.157666
v 0.361892 0.101989 -0.169649
v 0.334813 0.035683 -0.161782
v 0.242240 0.006801 -0.216123
v 0.146134 0.560265 -0.097383
v 0.310050 0.656584 -0.050103
v 0.346589 0.656593 -0.093870
v 0.254394 0.511653 -0.121277
v 0.157292 0.524063 -0.134012
v -0.184270 0.075633 -0.298705
v 0.039416 0.071118 -0.288889
v 0.033497 -0.014988 -0.217962
v -0.184663 0.016458 -0.280374
v -0.141309 0.089070 -0.300760
v 0.022924 0.008806 -0.278453
v 0.065224 0.502101 -0.246831
v -0.209139 0.575928 -0.261055
v 0.068885 0.548883 -0.200464
v -0.196878 0.604132 -0.227440
v 0.049616 0.572203 -0.158252
v 0.028506 0.067423 0.236577
v -0.199977 0.015091 0.217954
v 0.038553 -0.030682 0.163730
v -0.090048 0.009394 0.213027
v -0.080490 -0.020890 0.159876
v 0.039748 -0.016866 0.217358
v 0.001480 0.561978 0.151011
v -0.142836 0.547024 0.118041
v 0.001569 0.448320 0.207578
v 0.008243 0.515441 0.184746
v 0.088158 0.544386 0.210244
v -0.143579 0.505701 0.165739
v -0.587809 0.305495 0.155159
v -0.496584 0.099497 0.206222
v -0.612532 0.182379 -0.269229
v -0.584273 0.354682 -0.275423
v -0.405697 0.173042 -0.326775
v -0.614873 0.252481 -0.279183
v -0.551845 0.258860 -0.325282
v -0.501314 0.373859 -0.328061
v -0.443621 0.237248 -0.348118
v 0.281364 0.181679 -0.234637
v 0.232264 0.342901 -0.205569
v 0.401862 0.432374 -0.149006
v 0.388988 0.197740 -0.187301
v 0.350819 0.389303 -0.194592
v 0.432169 0.397651 -0.084652
v 0.416589 0.323393 -0.093728
v 0.295090 0.293212 0.207825
v 0.146968 0.233777 0.250935
v 0.216176 0.365503 0.196501
v 0.181544 0.428093 0.197337
v 0.123019 0.326887 0.254330
v 0.026547 0.195615 0.272087
v 0.060038 0.364660 0.260323
v -0.184021 0.309586 0.306094
v -0.036441 0.247768 0.306259
v -0.032446 0.286163 0.307615
v -0.041739 0.344183 0.290321
v 0.058011 0.188383 -0.267596
v -0.186475 0.190281 -0.304083
v -0.145617 0.366130 -0.316249
v 0.063157 0.346440 -0.269098
v 0.065566 0.275979 -0.252817
v 0.408728 0.675222 -0.111243
v 0.017599 0.702277 0.175214
v 0.409170 0.496366 0.277120
v 0.384308 0.398637 0.253635
v -0.408411 0.001518 -0.029689
v -0.580765 0.064996 -0.072403
v -0.271809 0.654908 -0.108077
v -0.381773 0.637716 -0.147766
v 0.373690 0.034702 -0.039364
v 0.366014 0.035536 0.002576
v 0.055193 0.575026 -0.076191
v -0.124471 0.635490 -0.090958
v 0.053080 0.587428 -0.000312
v -0.018821 0.607416 -0.095397
v -0.177600 -0.004743 -0.221618
v -0.241157 -0.012223 -0.015485
v -0.102891 -0.003967 -0.222451
v 0.341333 0.267852 0.075331
v 0.394984 0.300162 0.006574
v -0.650433 0.148052 -0.174164
v -0.671957 0.250430 -0.189608
v -0.667386 0.150041 -0.101341
v -0.670738 0.339385 -0.090152
v 0.364148 0.627085 -0.121434
v 0.500594 0.529946 0.066485
v 0.427467 0.372660 0.097768
v -0.576286 0.072802 0.080727
v -0.597089 0.070377 -0.023441
v -0.517167 0.010193 0.083174
v -0.526455 0.018432 -0.008905
v -0.490625 0.593416 -0.085729
v -0.302467 0.650312 -0.045965
v -0.398933 0.638073 -0.077460
v 0.253663 -0.008582 -0.015211
v 0.357169 0.013230 0.140364
v 0.317363 0.006060 0.031044
v 0.048074 0.599478 0.052507
v 0.058070 0.596008 0.124401
v 0.213626 0.655992 0.040668
v -0.143330 0.625876 -0.013678
v -0.143637 0.583374 0.070128
v -0.003435 0.574654 0.116267
v 0.000499 0.592570 -0.007351
v 0.027317 -0.016633 -0.027789
v -0.401325 -0.013468 0.086711
v 0.332651 0.168380 0.167950
v 0.392831 0.348802 0.067237
v 0.286827 0.337983 0.184802
v -0.664559 0.152145 -0.055123
v -0.638348 0.186664 0.062467
v -0.635468 0.322225 0.075180
v -0.691384 0.256152 -0.091462
v 0.252091 0.692651 0.058522
v 0.472868 0.501309 0.223617
v 0.381992 0.373334 0.181399
v -0.416252 0.516869 -0.292143
v 0.198192 0.409158 -0.193348
v 0.127651 0.435915 0.229562
v 0.173932 0.511452 0.277390
v -0.175226 0.369495 0.292426
v 0.061603 0.429100 -0.277107
v -0.572664 0.497795 -0.175943
v -0.600882 0.494727 -0.104264
v -0.611597 0.481728 -0.048968
v -0.342667 0.445681 0.241688
v -0.429996 0.580697 -0.226294
v 0.278521 0.486070 -0.149218
v 0.179179 0.442553 -0.173654
v 0.152766 0.502063 0.225577
v 0.083797 0.435199 0.225626
v -0.096518 0.507239 -0.283203
v 0.409307 0.646860 -0.036039
v 0.448555 0.641319 0.073123
v -0.562946 0.547024 -0.077939
v -0.506035 0.554809 0.053355
v -0.452482 0.471096 0.198887
v -0.277247 0.519995 -0.301323
v -0.166080 0.423513 0.252732
v -0.517787 0.556919 -0.169091
v -0.581913 0.180064 0.150191
v -0.508969 0.237857 0.217499
v -0.379709 0.278131 0.276761
v -0.551630 0.192879 -0.313877
v 0.416460 0.239694 -0.096871
v 0.391314 0.285459 -0.190027
v 0.306105 0.251965 -0.217710
v 0.195709 0.283860 0.241296
v -0.217091 0.186872 0.283696
v -0.041222 0.271681 -0.269803
v -0.205534 0.262102 -0.314638
v -0.671540 0.194919 -0.189108
v -0.691930 0.200903 -0.095492
v 0.150875 0.652194 0.219199
v -0.490960 0.367599 0.226993
v -0.561450 0.395034 0.154547
v -0.397633 0.360548 -0.352127
v 0.383628 0.471319 -0.153739
v 0.493038 0.567454 0.065453
v -0.638980 0.351296 -0.191867
v -0.343586 0.386111 0.264632
v -0.508213 0.507024 -0.253171
v 0.321097 0.437780 -0.187788
v 0.215329 0.378021 -0.197300
v 0.170469 0.451197 0.196287
v 0.169283 0.478346 0.268515
v 0.017261 0.413635 0.230958
v -0.160406 0.451065 -0.312264
v 0.292019 0.522409 0.291171
v 0.440792 0.549098 0.173486
v -0.597309 0.431915 0.075561
v 0.360329 0.681732 -0.122194
v 0.202190 0.672979 0.118131
v 0.118583 0.561520 0.187873
v 0.401833 0.737884 -0.183824
v 0.070185 0.688278 0.130079
v 0.442657 0.505309 -0.049910
v 0.245640 0.470851 0.298425
v 0.269439 0.419678 0.270343
v 0.327972 0.388060 0.225432
v 0.313448 0.481861 0.293013
v 0.317675 0.706953 0.065233
v 0.385594 0.611251 -0.116257
v 0.495652 0.464415 0.045664
v 0.500821 0.511301 0.129068
v 0.181875 0.447535 0.254163
v 0.051140 0.655934 0.137231
v 0.434595 0.374995 -0.001297
v 0.373844 0.654872 -0.140137
v 0.483127 0.464935 0.016074
v 0.447486 0.443612 -0.029924
v 0.448454 0.404485 0.032042
v 0.358458 0.693092 -0.029248
v 0.433942 0.641621 0.131981
v 0.341777 0.669126 0.173285
v 0.430938 0.410545 0.235128
v 0.465913 0.424650 0.202443
v 0.421886 0.367280 0.143423
v 0.375501 0.667848 0.140672
v 0.125873 0.640374 0.078172
v 0.486263 0.447904 0.127138
v 0.445225 0.601370 -0.003459
v 0.277135 0.554874 0.264734
v 0.378126 0.546887 0.236224
v 0.421123 0.584025 0.228815
v 0.416437 0.617169 0.183042
v 0.389413 0.645341 0.206071
v 0.328874 0.612757 0.240619
v 0.359641 0.553562 -0.128748
v 0.282702 0.643915 0.229725
v 0.067097 0.672365 0.181536
v 0.170914 0.562918 0.239204
v 0.222617 0.640528 0.238352
v 0.284639 0.604310 0.246571
v 0.230596 0.598076 0.235739
v 0.493872 0.538331 0.105431
v 0.186584 0.469237 0.280726
v 0.409139 0.503082 -0.111348
v 0.233027 0.501460 0.300197
v 0.438334 0.539205 -0.055542
v 0.157598 0.468211 0.221836
v 0.296284 0.381896 0.197001
v 0.249178 0.681012 0.139575
v 0.451870 0.512302 0.267542
v 0.430624 0.558387 0.197958
v 0.079589 0.613530 0.123198
v 0.099610 0.609117 0.186723
v 0.386799 0.704805 -0.022766
v 0.406568 0.681095 0.019341
v 0.363228 0.707769 0.032355
v 0.318637 0.706387 0.038871
v 0.294832 0.698107 0.026763
v 0.299382 0.619472 -0.093868
v 0.362444 0.698327 -0.098793
v 0.148962 0.584706 0.218051
v 0.189183 0.597262 0.231541
v 0.123996 0.676036 0.110516
v 0.127156 0.636291 0.220879
v 0.393385 0.653555 -0.123120
v 0.476970 0.588208 0.092769
v 0.405578 0.552507 -0.103715
v 0.183809 0.529063 0.279147
v 0.408075 0.556571 0.239833
v 0.427866 0.597758 -0.044808
v 0.481195 0.602525 0.072949
v 0.215936 0.672494 0.063261
v 0.488039 0.502054 0.023109
v 0.436437 0.460593 -0.062411
v 0.227560 0.423106 0.251181
v 0.387058 0.392952 0.223705
v 0.350427 0.511785 0.272432
v 0.363097 0.686726 0.077235
v 0.321396 0.425721 0.282371
v 0.327381 0.593839 -0.112038
v 0.419271 0.661873 0.048112
v 0.394754 0.103907 -0.101052
v 0.393064 0.172984 -0.019301
v 0.395401 0.226020 0.020946
v 0.344253 0.175563 0.073214
v 0.376694 0.120129 0.057655
v 0.357481 0.157813 0.026396
v 0.341336 0.105074 0.074590
v 0.335226 0.115567 0.064389
v 0.356885 0.026890 -0.110049
v 0.338334 0.051520 0.057345
v 0.364788 0.104630 0.071497
v 0.397014 0.127830 0.005005
v 0.353731 0.507526 0.275334
v 0.227040 0.269444 0.375385
v 0.400285 0.425656 0.252847
v 0.114213 0.444750 0.345242
v 0.387901 0.477547 0.280104
v 0.217235 0.365401 0.397682
v 0.229900 0.484660 0.314465
v 0.313802 0.325269 0.304947
v 0.304313 0.433328 0.359163
v 0.455610 0.511483 0.206522
v 0.606073 0.324519 0.052123
v 0.443220 0.412810 0.195486
v 0.593304 0.461910 -0.019750
v 0.460870 0.463177 0.227717
v 0.637326 0.388648 0.029275
v 0.514685 0.490893 0.104478
v 0.509261 0.370809 0.149035
v 0.531550 0.455596 0.160790
vt 0.180208 0.373804
vt 0.081519 0.396238
vt 0.226265 0.277088
vt 0.316689 0.912741
vt 0.328264 0.892394
vt 0.242703 0.877365
vt 0.354460 0.503502
vt 0.488199 0.414262
vt 0.258813 0.407401
vt 0.787285 0.448482
vt 0.872040 0.491653
vt 0.881196 0.533521
vt 0.490403 0.859735
vt 0.581207 0.786553
vt 0.465627 0.835953
vt 0.104607 0.370018
vt 0.064319 0.418868
vt 0.073128 0.431854
vt 0.078727 0.777942
vt 0.091790 0.743487
vt 0.142689 0.822652
vt 0.344255 0.544694
vt 0.292159 0.535896
vt 0.405212 0.900943
vt 0.480576 0.872813
vt 0.488425 0.723423
vt 0.469764 0.710488
vt 0.458582 0.683677
vt 0.469329 0.529754
vt 0.490061 0.595665
vt 0.478868 0.636539
vt 0.880650 0.374462
vt 0.806203 0.320882
vt 0.850692 0.274389
vt 0.805326 0.743188
vt 0.851818 0.770685
vt 0.845042 0.718300
vt 0.735303 0.640770
vt 0.699736 0.704154
vt 0.774035 0.664808
vt 0.291997 0.427853
vt 0.258361 0.339850
vt 0.264713 0.456289
vt 0.840584 0.438974
vt 0.874994 0.378578
vt 0.844958 0.373314
vt 0.682760 0.736499
vt 0.622861 0.777245
vt 0.450656 0.886861
vt 0.385618 0.220643
vt 0.317456 0.229943
vt 0.407275 0.162577
vt 0.372884 0.558145
vt 0.288302 0.664398
vt 0.386778 0.506733
vt 0.406592 0.682357
vt 0.391333 0.626327
vt 0.439048 0.621627
vt 0.023129 0.609072
vt 0.035379 0.518546
vt 0.026120 0.615177
vt 0.041307 0.516638
vt 0.629040 0.257260
vt 0.569012 0.346699
vt 0.619235 0.359166
vt 0.305218 0.443021
vt 0.286887 0.383186
vt 0.386535 0.443777
vt 0.173923 0.457684
vt 0.581045 0.454061
vt 0.596526 0.401464
vt 0.672536 0.364795
vt 0.118945 0.820951
vt 0.347252 0.764771
vt 0.213827 0.808596
vt 0.318363 0.716935
vt 0.625054 0.266936
vt 0.642893 0.363438
vt 0.744659 0.372142
vt 0.645139 0.420912
vt 0.558819 0.386807
vt 0.371156 0.340499
vt 0.362228 0.899704
vt 0.398544 0.827247
vt 0.450070 0.854336
vt 0.057309 0.699001
vt 0.765151 0.222583
vt 0.776008 0.186177
vt 0.800897 0.202815
vt 0.139465 0.696719
vt 0.145787 0.327097
vt 0.542505 0.744386
vt 0.443867 0.819437
vt 0.510434 0.743627
vt 0.341226 0.564992
vt 0.458969 0.498775
vt 0.527106 0.488695
vt 0.518684 0.514801
vt 0.490297 0.523233
vt 0.492678 0.481990
vt 0.473372 0.508563
vt 0.400673 0.723596
vt 0.413338 0.773378
vt 0.319728 0.616468
vt 0.442045 0.392108
vt 0.185460 0.645647
vt 0.265147 0.647208
vt 0.191483 0.606028
vt 0.694790 0.440524
vt 0.634591 0.478693
vt 0.668331 0.222609
vt 0.615106 0.315512
vt 0.638292 0.151077
vt 0.833027 0.782642
vt 0.742134 0.783103
vt 0.801297 0.773240
vt 0.915409 0.534385
vt 0.903267 0.482610
vt 0.911442 0.504183
vt 0.178402 0.511163
vt 0.143107 0.591015
vt 0.734921 0.349161
vt 0.732107 0.268460
vt 0.650096 0.756788
vt 0.428917 0.710556
vt 0.350830 0.231724
vt 0.046603 0.657142
vt 0.124857 0.730540
vt 0.119525 0.668797
vt 0.631512 0.741262
vt 0.728527 0.771825
vt 0.682709 0.779204
vt 0.709516 0.378134
vt 0.745075 0.363900
vt 0.781346 0.383033
vt 0.744236 0.250930
vt 0.058471 0.734402
vt 0.029223 0.674125
vt 0.677048 0.678476
vt 0.870888 0.678571
vt 0.856082 0.603865
vt 0.807051 0.645192
vt 0.088180 0.584014
vt 0.643099 0.606191
vt 0.685098 0.521468
vt 0.710837 0.518650
vt 0.354430 0.843912
vt 0.281605 0.780083
vt 0.677288 0.626852
vt 0.620206 0.626333
vt 0.216968 0.842118
vt 0.299926 0.855677
vt 0.190268 0.748030
vt 0.347967 0.865708
vt 0.814037 0.646075
vt 0.863101 0.666537
vt 0.846060 0.701272
vt 0.718815 0.633543
vt 0.758952 0.687270
vt 0.692740 0.690944
vt 0.101871 0.636884
vt 0.427195 0.520128
vt 0.622984 0.376367
vt 0.408916 0.601874
vt 0.326453 0.653409
vt 0.362988 0.639956
vt 0.070658 0.499972
vt 0.321488 0.653896
vt 0.163517 0.741559
vt 0.131192 0.677510
vt 0.124837 0.629413
vt 0.118854 0.578907
vt 0.400512 0.809168
vt 0.455075 0.766542
vt 0.446248 0.759960
vt 0.553435 0.748782
vt 0.538450 0.667144
vt 0.485397 0.709873
vt 0.464390 0.697275
vt 0.123944 0.807102
vt 0.159379 0.828144
vt 0.669450 0.606567
vt 0.339716 0.774512
vt 0.379577 0.851270
vt 0.471440 0.534494
vt 0.480310 0.490541
vt 0.463703 0.690447
vt 0.922637 0.780624
vt 0.850875 0.736473
vt 0.884290 0.723598
vt 0.911178 0.766316
vt 0.910278 0.786240
vt 0.960748 0.866499
vt 0.897282 0.725571
vt 0.883791 0.747439
vt 0.484996 0.639555
vt 0.515664 0.638616
vt 0.600973 0.753142
vt 0.534984 0.773744
vt 0.558430 0.625835
vt 0.875278 0.807617
vt 0.888115 0.804014
vt 0.862441 0.783525
vt 0.910957 0.616339
vt 0.902279 0.654373
vt 0.899515 0.667662
vt 0.759696 0.532105
vt 0.791026 0.528500
vt 0.767589 0.603202
vt 0.739666 0.549735
vt 0.739348 0.440891
vt 0.902968 0.585899
vt 0.908857 0.540682
vt 0.906417 0.609581
vt 0.908967 0.573053
vt 0.911107 0.563497
vt 0.601246 0.656915
vt 0.575467 0.608940
vt 0.900660 0.639970
vt 0.892850 0.616149
vt 0.780792 0.734237
vt 0.758156 0.785186
vt 0.641569 0.764418
vt 0.884679 0.482618
vt 0.904831 0.543265
vt 0.895578 0.510433
vt 0.475596 0.796618
vt 0.695397 0.374149
vt 0.731111 0.368037
vt 0.502570 0.441645
vt 0.505058 0.496341
vt 0.852500 0.435531
vt 0.808995 0.399873
vt 0.866625 0.455293
vt 0.517949 0.463176
vt 0.491795 0.602902
vt 0.778344 0.760899
vt 0.724352 0.213200
vt 0.723922 0.229663
vt 0.764624 0.273169
vt 0.726790 0.182145
vt 0.720820 0.169142
vt 0.744550 0.206835
vt 0.804957 0.243777
vt 0.813787 0.294875
vt 0.554119 0.101030
vt 0.697294 0.104088
vt 0.637744 0.075250
vt 0.819400 0.233069
vt 0.358072 0.306095
vt 0.492967 0.176764
vt 0.464710 0.305242
vt 0.273813 0.607012
vt 0.117183 0.575332
vt 0.670482 0.727117
vt 0.587621 0.755886
vt 0.130929 0.404778
vt 0.837004 0.408836
vt 0.822779 0.259505
vt 0.325061 0.408683
vt 0.391446 0.528971
vt 0.217728 0.566947
vt 0.188225 0.318102
vt 0.106586 0.519609
vt 0.588575 0.081467
vt 0.577182 0.152793
vt 0.513429 0.103571
vt 0.361688 0.241884
vt 0.335099 0.343296
vt 0.849778 0.274050
vt 0.859553 0.302027
vt 0.193092 0.328276
vt 0.173480 0.420023
vt 0.664278 0.766158
vt 0.260218 0.696625
vt 0.318194 0.700575
vt 0.271035 0.761404
vt 0.317473 0.701729
vt 0.605404 0.586456
vt 0.519477 0.522845
vt 0.569910 0.350180
vt 0.570047 0.421468
vt 0.588183 0.413583
vt 0.556631 0.420693
vt 0.627841 0.394525
vt 0.521417 0.425073
vt 0.506589 0.321981
vt 0.292129 0.346719
vt 0.440824 0.676187
vt 0.314063 0.667398
vt 0.196744 0.356383
vt 0.094764 0.463106
vt 0.060007 0.560225
vt 0.211528 0.882576
vt 0.258342 0.900491
vt 0.801694 0.202766
vt 0.775319 0.186988
vt 0.540810 0.807052
vt 0.741366 0.380580
vt 0.817278 0.387409
vt 0.182367 0.683691
vt 0.143239 0.499238
vt 0.177210 0.443609
vt 0.343831 0.543410
vt 0.143860 0.389966
vt 0.072246 0.499140
vt 0.208823 0.486184
vt 0.679608 0.112119
vt 0.534633 0.184334
vt 0.689274 0.150056
vt 0.819055 0.232820
vt 0.437780 0.177873
vt 0.845353 0.373874
vt 0.874626 0.377046
vt 0.317678 0.272659
vt 0.900039 0.605617
vt 0.515502 0.636999
vt 0.183260 0.510891
vt 0.640434 0.387010
vt 0.556237 0.419921
vt 0.304224 0.888657
vt 0.721677 0.169953
vt 0.887857 0.443143
vt 0.840230 0.438542
vt 0.738086 0.378041
vt 0.165038 0.855507
vt 0.590115 0.732158
vt 0.484809 0.555732
vt 0.787475 0.594208
vt 0.735566 0.637600
vt 0.518806 0.780214
vt 0.388015 0.444120
vt 0.530616 0.292908
vt 0.274777 0.781850
vt 0.329221 0.783729
vt 0.870629 0.592910
vt 0.566220 0.501348
vt 0.573137 0.546657
vt 0.479902 0.562833
vt 0.741214 0.381249
vt 0.547001 0.416580
vt 0.601124 0.104183
vt 0.883204 0.557712
vt 0.660724 0.187141
vt 0.425716 0.848020
vt 0.219399 0.643013
vt 0.074348 0.245679
vt 0.268652 0.416137
vt 0.343133 0.088247
vt 0.125750 -0.048388
vt 0.509735 0.428007
vt 0.415851 0.746279
vt 0.462955 0.586596
vt 0.069072 0.222358
vt 0.291095 0.674407
vt 0.316869 0.436278
vt 0.344728 0.163216
vt 0.512518 0.346969
vt 0.487502 0.502485
vt 0.462313 0.659074
vt 0.022947 0.539746
vt 0.102103 0.633653
vt 0.138349 0.022492
vn -0.0501 -0.2498 0.9670
vn -0.2434 -0.2727 0.9308
vn -0.0257 -0.6528 0.7571
vn -0.2630 0.9329 -0.2458
vn -0.3561 0.7593 -0.5447
vn -0.5648 0.7542 -0.3348
vn -0.2628 -0.8695 -0.4182
vn -0.0660 -0.9816 -0.1794
vn -0.1393 -0.9813 -0.1332
vn 0.9188 0.2076 0.3357
vn 0.9736 0.1132 0.1983
vn 0.8780 0.3967 0.2679
vn 0.1022 0.6308 -0.7692
vn 0.1772 0.4376 -0.8815
vn 0.0029 0.4487 -0.8937
vn -0.3824 -0.7430 0.5493
vn -0.5016 -0.3149 0.8058
vn -0.7034 -0.4685 0.5346
vn -0.5386 0.6412 0.5466
vn -0.2166 0.6776 0.7028
vn -0.2820 0.8720 0.4002
vn -0.3045 -0.6737 -0.6734
vn -0.4269 -0.8009 -0.4199
vn -0.0656 0.8276 -0.5575
vn 0.1722 0.7934 -0.5839
vn -0.8757 0.4453 -0.1867
vn -0.4495 0.8570 0.2521
vn -0.5045 0.6421 0.5772
vn -0.0525 0.3256 0.9440
vn -0.7279 0.0797 0.6810
vn -0.4015 0.1132 0.9089
vn 0.9958 -0.0763 -0.0511
vn 0.8875 -0.1009 0.4497
vn 0.9459 -0.3000 -0.1239
vn -0.2382 0.5466 -0.8028
vn -0.7511 0.4567 -0.4767
vn -0.2367 0.2838 -0.9292
vn 0.3322 0.5180 -0.7882
vn 0.2893 0.6301 -0.7206
vn -0.0538 0.4240 -0.9041
vn 0.1509 -0.0621 -0.9866
vn 0.0824 -0.6484 -0.7568
vn 0.0497 -0.0998 -0.9938
vn -0.0289 -0.9840 -0.1756
vn 0.0047 -0.9821 -0.1882
vn 0.4085 0.5104 -0.7567
vn 0.3089 0.9060 -0.2894
vn 0.1349 0.9264 -0.3515
vn 0.0212 -0.2266 0.9738
vn -0.0376 -0.6584 0.7517
vn -0.0675 -0.6812 0.7290
vn -0.1270 0.4218 0.8978
vn 0.0164 0.6945 0.7193
vn 0.0083 0.5554 0.8315
vn -0.2651 0.7508 0.6050
vn -0.2651 0.4233 0.8664
vn 0.0068 0.4232 0.9060
vn -0.7584 0.0781 0.6471
vn -0.5337 -0.0510 0.8441
vn -0.4801 0.2203 0.8491
vn -0.7628 -0.1762 0.6222
vn 0.6930 0.0405 -0.7198
vn 0.9864 -0.1517 -0.0637
vn 0.1235 0.4205 0.8989
vn 0.1317 0.1151 0.9846
vn 0.1450 0.3689 0.9181
vn -0.0733 0.0544 0.9958
vn 0.2010 0.0474 0.9784
vn 0.1032 -0.5028 0.8582
vn 0.2338 -0.7330 0.6388
vn -0.5955 0.7503 0.2869
vn 0.0374 0.8931 0.4483
vn -0.0140 0.8747 0.4845
vn -0.0380 0.7824 0.6217
vn 0.1337 -0.9748 0.1784
vn -0.0223 -0.9930 0.1159
vn -0.0040 -0.9994 -0.0337
vn -0.0686 -0.9789 0.1923
vn -0.0346 -0.9979 -0.0539
vn 0.0205 0.9971 -0.0735
vn 0.1215 0.9570 0.2636
vn 0.2020 0.9787 -0.0363
vn -0.3908 0.4550 0.8001
vn 0.6479 0.2273 0.7270
vn 0.7491 -0.6219 0.2283
vn 0.7883 -0.6150 -0.0191
vn -0.0227 0.6910 0.7225
vn -0.1544 -0.6716 0.7246
vn -0.0193 0.9714 -0.2367
vn 0.1434 0.9861 0.0845
vn -0.3083 0.9504 -0.0408
vn 0.1469 0.1238 -0.9814
vn 0.1573 0.3217 0.9337
vn -0.1668 -0.2829 0.9446
vn -0.1461 -0.4774 0.8665
vn -0.5969 -0.3184 0.7365
vn -0.6442 -0.6156 0.4540
vn -0.8138 -0.2576 0.5209
vn 0.1840 -0.0491 -0.9817
vn 0.1327 0.2103 -0.9686
vn 0.3556 0.2048 -0.9119
vn 0.3068 0.1919 0.9322
vn -0.8945 -0.2425 -0.3757
vn -0.6473 -0.4349 -0.6260
vn -0.7052 -0.6366 -0.3123
vn 0.1625 0.1278 0.9784
vn 0.2054 0.5001 0.8412
vn 0.9804 0.1166 0.1586
vn 0.6721 0.3059 0.6743
vn 0.7829 0.0914 0.6154
vn -0.4395 0.8715 -0.2176
vn -0.3304 0.8582 -0.3928
vn 0.2314 0.9669 0.1078
vn 0.8942 0.0963 -0.4372
vn 0.9303 -0.3158 -0.1867
vn 0.8615 -0.2706 -0.4297
vn -0.5578 -0.8050 -0.2021
vn -0.8127 -0.5770 -0.0817
vn 0.8646 -0.0752 0.4968
vn 0.9402 -0.1395 0.3106
vn -0.3647 0.8219 -0.4375
vn -0.1963 0.9189 0.3422
vn -0.9042 0.1546 0.3981
vn -0.9494 0.3133 -0.0192
vn -0.9925 0.1153 0.0399
vn -0.1509 0.9493 0.2759
vn 0.0127 0.9865 0.1631
vn -0.3645 0.9105 -0.1950
vn 0.1147 -0.9602 0.2545
vn 0.4404 -0.8733 0.2082
vn 0.7899 -0.5124 0.3370
vn 0.1792 -0.9835 -0.0232
vn -0.8153 0.4300 0.3877
vn -0.7037 0.3367 0.6256
vn 0.1540 0.2870 -0.9455
vn 0.1054 0.3463 -0.9322
vn -0.1521 0.5355 -0.8307
vn -0.1787 0.3165 0.9316
vn 0.1721 0.3617 0.9163
vn 0.0268 0.3076 0.9511
vn -0.0688 0.3538 0.9328
vn -0.0233 0.1253 -0.9918
vn 0.2842 0.4092 -0.8671
vn 0.2301 0.1657 -0.9589
vn -0.7440 0.5353 -0.3999
vn -0.5443 0.5455 -0.6373
vn -0.8545 0.3420 -0.3909
vn -0.2184 0.5171 -0.8276
vn 0.6790 0.6648 0.3114
vn 0.6875 0.7245 -0.0501
vn 0.6843 0.7291 -0.0139
vn 0.4354 0.7057 0.5589
vn 0.3554 0.9072 0.2251
vn 0.1342 0.9236 0.3592
vn -0.1002 0.5112 0.8536
vn -0.0446 0.4213 0.9058
vn 0.6340 -0.0352 0.7725
vn 0.2371 0.0900 -0.9673
vn 0.1831 -0.0711 -0.9805
vn 0.1857 0.0084 -0.9826
vn -0.2538 0.0188 0.9671
vn -0.3893 -0.3916 -0.8337
vn -0.0658 -0.1524 -0.9861
vn -0.0274 -0.3264 -0.9448
vn -0.9811 -0.1904 0.0334
vn -0.8613 -0.4851 0.1512
vn -0.7669 0.5089 0.3911
vn -0.8483 -0.3174 -0.4238
vn -0.3956 0.4086 0.8225
vn -0.4212 0.7982 -0.4306
vn -0.0183 0.5171 0.8557
vn -0.0714 0.7617 0.6440
vn -0.4165 0.0735 0.9062
vn -0.8553 0.4985 0.1413
vn -0.8326 0.5258 -0.1741
vn -0.3611 0.2644 -0.8943
vn -0.7042 0.0860 0.7047
vn -0.4599 -0.3900 0.7978
vn -0.7189 -0.2185 0.6599
vn 0.9846 -0.1196 -0.1273
vn 0.7800 0.6214 0.0733
vn 0.9705 0.1688 -0.1720
vn 0.7971 -0.3721 -0.4756
vn -0.2447 -0.3511 -0.9038
vn 0.2024 0.5947 -0.7780
vn 0.6522 -0.0258 -0.7576
vn -0.4169 -0.0495 -0.9076
vn -0.5415 -0.0993 0.8348
vn -0.1923 0.1085 0.9753
vn -0.1931 0.9801 0.0458
vn -0.1484 0.8774 -0.4562
vn -0.1596 0.3317 0.9298
vn -0.8396 0.5431 -0.0121
vn -0.9166 0.1749 -0.3595
vn 0.2971 0.9548 0.0121
vn 0.8728 0.1426 -0.4668
vn 0.7317 0.2020 -0.6510
vn 0.8612 0.3149 -0.3990
vn 0.8950 0.4238 0.1392
vn 0.7831 0.5114 0.3540
vn 0.8470 0.3763 0.3756
vn 0.6688 0.4487 0.5927
vn 0.6079 0.2425 0.7560
vn 0.9477 0.2945 -0.1230
vn 0.9846 0.1163 -0.1304
vn 0.7632 0.2149 -0.6094
vn 0.8814 0.0547 -0.4691
vn 0.7374 0.1707 -0.6535
vn 0.0172 0.6831 0.7301
vn -0.0553 0.4116 0.9097
vn 0.7982 0.4548 -0.3949
vn 0.8876 0.4605 0.0069
vn 0.4161 0.8713 0.2603
vn -0.1204 0.9704 -0.2095
vn -0.4108 0.8601 -0.3025
vn 0.9566 -0.0926 -0.2763
vn 0.9188 -0.0151 -0.3943
vn 0.9020 -0.2878 -0.3218
vn -0.1157 0.8085 -0.5770
vn 0.2467 -0.9330 0.2619
vn 0.5188 -0.6564 0.5477
vn -0.0907 -0.2619 0.9608
vn -0.1114 0.1625 0.9804
vn 0.9062 -0.4141 0.0853
vn 0.7112 -0.7029 -0.0032
vn 0.8208 -0.5605 -0.1101
vn -0.5982 0.3304 0.7301
vn -0.4214 0.7854 -0.4535
vn 0.8447 0.2886 0.4508
vn 0.7608 0.4329 0.4835
vn 0.7731 0.1346 0.6199
vn 0.9671 -0.2479 0.0573
vn 0.5371 -0.8432 -0.0233
vn 0.4617 -0.0346 0.8864
vn 0.9757 -0.0429 0.2150
vn 0.9680 -0.0663 0.2421
vn 0.8478 -0.5296 0.0265
vn 0.6720 -0.5745 0.4673
vn 0.6794 -0.7103 -0.1843
vn 0.1504 -0.2388 0.9593
vn 0.0015 -0.0927 0.9957
vn 0.1465 -0.1281 0.9809
vn 0.1428 -0.0920 -0.9855
vn -0.1300 -0.4734 -0.8712
vn -0.0439 0.8829 -0.4676
vn 0.1563 0.9759 -0.1523
vn -0.4703 -0.8689 0.1545
vn 0.9113 -0.4110 0.0229
vn 0.2247 -0.9609 -0.1617
vn 0.3828 -0.1838 -0.9053
vn 0.3052 0.0056 -0.9523
vn 0.0622 0.5964 0.8003
vn -0.0960 -0.9439 0.3160
vn -0.1817 -0.7911 -0.5840
vn 0.2633 -0.4412 0.8579
vn 0.2275 0.0257 0.9734
vn 0.0245 -0.6245 0.7806
vn 0.6219 -0.5857 -0.5199
vn 0.7417 -0.2858 -0.6068
vn 0.3350 -0.6730 -0.6595
vn -0.0862 -0.7238 -0.6846
vn 0.4118 0.7155 -0.5644
vn -0.7232 0.0660 -0.6874
vn -0.4288 0.0139 -0.9033
vn -0.6905 0.3272 -0.6451
vn 0.3932 0.1728 -0.9031
vn 0.1928 -0.0637 0.9792
vn 0.1197 -0.8029 0.5840
vn -0.3506 -0.7200 0.5989
vn 0.2611 0.1767 0.9490
vn 0.0920 -0.1728 0.9806
vn 0.2663 -0.0517 -0.9625
vn 0.1805 -0.1062 -0.9778
vn -0.1362 -0.9903 0.0292
vn -0.7683 -0.5617 0.3070
vn -0.8934 -0.2227 0.3903
vn -0.4923 0.8703 -0.0130
vn -0.2962 0.9518 0.0801
vn 0.2833 0.9553 -0.0846
vn 0.6905 -0.6488 0.3198
vn 0.9269 -0.2005 0.3174
vn -0.9165 0.1158 -0.3828
vn -0.7310 -0.6794 0.0637
vn -0.4156 -0.9046 -0.0952
vn -0.0324 -0.2609 -0.9648
vn 0.5092 0.3031 -0.8055
vn 0.1944 0.1155 -0.9741
vn -0.0055 0.3765 0.9264
vn -0.0698 -0.9167 0.3934
vn -0.2004 -0.7497 0.6307
vn -0.0317 0.9747 0.2215
vn -0.6729 0.7397 0.0093
vn -0.8200 0.1399 0.5550
vn 0.7508 -0.1196 -0.6497
vn 0.8505 0.3254 0.4133
vn 0.1481 0.4392 0.8861
vn 0.0900 0.4860 0.8693
vn -0.4165 0.3981 0.8173
vn 0.0488 0.6156 0.7865
vn 0.3843 0.1634 0.9086
vn 0.4321 0.2577 0.8642
vn 0.6624 -0.2288 0.7134
vn 0.6261 -0.2212 0.7477
vn 0.7122 -0.2388 0.6601
vn 0.1850 0.6792 0.7102
vn 0.5610 0.2011 0.8030
vn 0.7922 0.2577 0.5531
vn 0.6940 0.6723 0.2577
vn 0.7560 0.2377 0.6098
vn 0.6137 -0.2796 0.7384
vn 0.4959 -0.3978 0.7719
vn 0.6317 -0.0081 0.7752
vn 0.6856 0.4944 0.5344
vn -0.0255 0.5739 0.8185
vn 0.7081 0.6544 0.2651
vn 0.6843 -0.1937 0.7030
usemtl dingus
s 1
f 180/1/1 3/2/2 50/3/3
f 100/4/4 158/5/5 171/6/6
f 14/7/7 107/8/8 97/9/9
f 146/10/10 216/11/11 247/12/12
f 45/13/13 163/14/14 169/15/15
f 4/16/16 62/17/17 1/18/18
f 6/19/19 9/20/20 10/21/21
f 13/22/22 14/7/7 11/23/23
f 45/13/13 17/24/24 47/25/25
f 257/26/26 130/27/27 25/28/28
f 26/29/29 27/30/30 205/31/31
f 176/32/32 289/33/33 287/34/34
f 264/35/35 35/36/36 285/37/37
f 160/38/38 37/39/39 36/40/40
f 39/41/41 43/42/42 42/43/43
f 109/44/44 43/45/42 40/46/45
f 45/13/13 47/25/25 44/47/46
f 48/48/47 47/25/25 16/49/48
f 49/50/49 52/51/50 54/52/51
f 57/53/52 60/54/53 198/55/54
f 55/56/55 58/57/56 59/58/57
f 61/59/58 173/60/59 186/61/60
f 172/62/61 173/60/59 61/59/58
f 176/63/32 177/64/62 76/65/63
f 87/66/64 86/67/65 83/68/66
f 84/69/67 86/67/65 87/66/64
f 212/70/68 284/71/69 96/72/70
f 10/21/21 167/73/71 6/19/19
f 133/74/72 8/75/73 56/76/74
f 20/77/75 51/78/76 136/79/77
f 51/78/76 53/80/78 136/79/77
f 107/8/8 109/81/44 108/82/79
f 99/83/80 132/84/81 104/85/82
f 9/20/20 6/19/19 168/86/83
f 291/87/84 102/88/85 101/89/86
f 7/90/87 198/55/54 60/54/53
f 5/91/88 50/3/3 3/2/2
f 105/92/89 135/93/90 129/94/91
f 39/41/41 42/43/43 88/95/92
f 150/96/93 80/97/94 196/98/95
f 252/99/96 217/100/97 197/101/98
f 87/66/64 83/68/66 198/55/54
f 90/102/99 199/103/100 153/104/101
f 83/68/66 81/105/102 150/96/93
f 183/106/103 63/107/104 112/108/105
f 212/70/68 95/109/106 282/110/107
f 138/111/108 77/112/109 18/113/110
f 224/114/111 263/115/112 261/116/113
f 278/117/114 215/118/115 221/119/116
f 132/84/81 135/93/90 104/85/82
f 98/120/117 114/121/118 112/108/105
f 110/122/119 290/123/120 289/33/33
f 108/82/79 97/9/9 107/8/8
f 129/94/91 131/124/121 105/92/89
f 138/111/108 290/123/120 110/122/119
f 134/125/122 129/94/91 135/93/90
f 53/126/78 108/82/79 109/81/44
f 138/111/108 110/122/119 77/112/109
f 143/127/123 115/128/124 144/129/125
f 254/130/126 213/131/127 145/132/128
f 147/133/129 229/134/130 228/135/131
f 130/27/27 129/94/91 134/125/122
f 136/79/77 126/136/132 20/77/75
f 6/19/19 202/137/133 187/138/134
f 44/47/46 153/139/101 163/14/14
f 240/140/135 194/141/136 159/142/137
f 192/143/138 168/86/83 186/61/60
f 239/144/139 235/145/140 274/146/141
f 169/15/15 199/147/100 188/148/142
f 153/139/101 149/149/143 195/150/144
f 154/151/145 193/152/146 191/153/147
f 148/154/148 158/5/5 17/24/24
f 159/142/137 160/38/38 36/40/40
f 163/14/14 45/13/13 44/47/46
f 225/155/149 165/156/150 286/157/151
f 238/158/152 230/159/153 226/160/154
f 157/161/155 168/86/83 192/143/138
f 150/96/93 162/162/156 198/55/54
f 77/112/109 110/122/119 140/163/157
f 178/164/158 181/165/159 92/166/160
f 174/167/161 180/1/1 84/69/67
f 175/168/162 69/169/163 65/170/164
f 184/171/165 114/121/118 141/172/166
f 94/173/167 218/174/168 242/175/169
f 231/176/170 130/27/27 257/26/26
f 244/177/171 185/178/172 269/179/173
f 150/96/93 198/55/54 83/68/66
f 186/61/60 187/138/134 61/59/58
f 115/128/124 156/180/174 155/181/175
f 194/182/136 195/150/144 149/149/143
f 68/183/176 193/152/146 148/184/148
f 151/185/177 197/101/98 248/186/178
f 25/28/28 258/187/179 257/26/26
f 93/188/180 260/189/181 164/190/182
f 270/191/183 220/192/184 206/193/185
f 214/194/186 116/195/187 220/192/184
f 130/27/27 231/176/170 129/94/91
f 266/196/188 267/197/189 269/179/173
f 267/197/189 244/177/171 269/179/173
f 204/198/190 185/178/172 244/177/171
f 204/198/190 268/199/191 185/178/172
f 267/197/189 246/200/192 244/177/171
f 205/31/31 258/187/179 25/28/28
f 224/114/111 265/201/193 203/202/194
f 35/36/36 224/114/111 203/202/194
f 270/191/183 214/194/186 220/192/184
f 93/188/180 270/191/183 206/193/185
f 164/190/182 214/194/186 270/191/183
f 116/195/187 203/202/194 220/192/184
f 116/195/187 214/194/186 240/140/135
f 285/37/37 116/195/187 240/140/135
f 224/114/111 261/116/113 259/203/195
f 259/203/195 261/116/113 260/189/181
f 260/189/181 93/188/180 259/203/195
f 231/176/170 257/26/26 268/199/191
f 258/187/179 218/174/168 257/26/26
f 251/204/196 272/205/197 275/206/198
f 256/207/199 201/208/200 237/209/201
f 236/210/202 256/207/199 237/209/201
f 274/146/141 95/109/106 255/211/203
f 190/212/204 117/213/205 278/117/114
f 249/214/206 208/215/207 72/216/208
f 239/144/139 241/217/209 245/218/210
f 242/175/169 269/179/173 185/178/172
f 242/175/169 258/187/179 269/179/173
f 242/175/169 218/174/168 258/187/179
f 233/219/211 286/157/151 276/220/212
f 238/158/152 239/144/139 236/210/202
f 225/155/149 286/157/151 283/221/213
f 260/189/181 275/206/198 164/190/182
f 260/189/181 286/157/151 275/206/198
f 237/209/201 225/155/149 238/158/152
f 241/217/209 244/177/171 246/200/192
f 276/220/212 165/156/150 225/155/149
f 236/210/202 255/211/203 256/207/199
f 228/135/131 146/10/10 255/211/203
f 254/130/126 145/132/128 204/198/190
f 247/12/12 117/213/205 190/212/204
f 262/222/214 263/115/112 145/132/128
f 277/223/215 263/115/112 131/124/121
f 261/116/113 286/157/151 260/189/181
f 261/116/113 263/115/112 262/222/214
f 75/224/216 279/225/217 222/226/218
f 224/114/111 259/203/195 265/201/193
f 206/193/185 203/202/194 265/201/193
f 207/227/219 218/174/168 94/173/167
f 207/227/219 268/199/191 218/174/168
f 268/199/191 257/26/26 218/174/168
f 96/72/70 281/228/220 227/229/221
f 248/186/178 209/230/222 250/231/223
f 278/117/114 208/215/207 190/212/204
f 232/232/224 216/11/11 146/10/10
f 216/11/11 215/118/115 117/213/205
f 232/232/224 118/233/225 223/234/226
f 95/109/106 96/72/70 255/211/203
f 204/198/190 244/177/171 254/130/126
f 262/222/214 213/131/127 261/116/113
f 226/160/154 241/217/209 238/158/152
f 212/70/68 96/72/70 95/109/106
f 284/71/69 212/70/68 209/235/222
f 222/226/218 279/225/217 221/119/116
f 266/196/188 27/30/30 243/236/227
f 268/199/191 242/175/169 185/178/172
f 268/199/191 207/227/219 242/175/169
f 207/227/219 94/173/167 242/175/169
f 265/201/193 259/203/195 206/193/185
f 220/192/184 203/202/194 206/193/185
f 93/188/180 206/193/185 259/203/195
f 34/237/228 131/124/121 224/114/111
f 204/198/190 231/176/170 268/199/191
f 293/238/229 294/239/230 138/111/108
f 294/239/230 290/123/120 138/111/108
f 292/240/231 290/123/120 294/239/230
f 296/241/232 128/242/233 297/243/234
f 291/87/84 298/244/235 288/245/236
f 20/246/75 127/247/237 24/248/238
f 298/244/235 295/249/239 287/34/34
f 11/23/23 112/108/105 63/107/104
f 145/132/128 263/115/112 277/223/215
f 82/250/240 19/251/241 78/252/242
f 89/253/243 12/254/244 65/170/164
f 33/255/245 48/48/47 103/256/246
f 1/18/18 121/257/247 4/16/16
f 219/258/248 75/224/216 222/226/218
f 136/79/77 29/259/249 126/136/132
f 28/260/250 88/95/92 70/261/251
f 16/49/48 99/83/80 104/85/82
f 7/90/87 170/262/252 198/55/54
f 4/16/16 3/2/2 62/17/17
f 2/263/253 5/91/88 4/16/16
f 9/20/20 8/75/73 10/21/21
f 14/7/7 12/254/244 15/264/254
f 22/265/255 18/113/110 21/266/256
f 16/49/48 47/25/25 17/24/24
f 22/265/255 19/251/241 23/267/257
f 22/265/255 20/246/75 24/248/238
f 31/268/258 28/260/250 30/269/259
f 31/270/258 29/259/249 32/271/260
f 36/40/40 264/35/35 285/37/37
f 109/272/44 41/273/261 43/42/42
f 41/273/261 42/43/43 43/42/42
f 50/3/3 53/126/78 52/51/50
f 46/274/262 47/25/25 48/48/47
f 44/47/46 47/25/25 46/274/262
f 53/126/78 54/52/51 52/51/50
f 58/57/56 162/162/156 59/58/57
f 57/53/52 58/57/56 60/54/53
f 55/56/55 60/54/53 58/57/56
f 175/168/162 66/275/263 67/276/264
f 186/61/60 173/60/59 174/167/161
f 67/276/264 64/277/265 68/183/176
f 68/183/176 69/169/163 67/278/264
f 178/164/158 74/279/266 177/280/62
f 175/168/162 67/278/264 69/169/163
f 177/281/62 72/282/208 75/283/216
f 79/284/267 253/285/268 280/286/269
f 76/65/63 177/64/62 75/283/216
f 140/163/157 79/284/267 77/112/109
f 80/97/94 280/286/269 217/100/97
f 80/97/94 81/105/102 79/284/267
f 179/287/270 79/284/267 81/105/102
f 84/69/67 85/288/271 86/67/65
f 181/165/159 91/289/272 92/166/160
f 90/102/99 181/165/159 182/290/273
f 4/16/16 137/291/274 2/263/253
f 266/196/188 205/31/31 27/30/30
f 119/292/275 172/62/61 142/293/276
f 18/113/110 127/247/237 138/111/108
f 100/4/4 123/294/277 125/295/278
f 100/4/4 125/295/278 99/83/80
f 101/296/86 102/297/85 126/136/132
f 134/125/122 56/76/74 55/56/55
f 135/93/90 103/256/246 106/298/279
f 139/299/280 111/300/281 219/258/248
f 104/85/82 135/93/90 106/298/279
f 289/33/33 111/300/281 110/122/119
f 115/128/124 113/301/282 144/129/125
f 113/301/282 184/171/165 144/129/125
f 168/86/83 7/90/87 9/20/20
f 254/130/126 244/177/171 241/217/209
f 120/302/283 98/120/117 122/303/284
f 17/24/24 99/83/80 16/49/48
f 13/304/22 65/170/164 12/254/244
f 100/4/4 17/24/24 158/5/5
f 11/23/23 175/168/162 13/22/22
f 15/264/254 107/305/8 14/306/7
f 38/307/285 15/264/254 12/254/244
f 37/39/39 48/48/47 33/255/245
f 44/47/46 37/39/39 160/38/38
f 295/308/239 30/309/259 287/310/34
f 70/261/251 30/269/259 28/260/250
f 126/136/132 295/311/239 101/296/86
f 55/56/55 130/27/27 134/125/122
f 21/266/256 78/252/242 19/251/241
f 77/112/109 21/266/256 18/113/110
f 23/267/257 51/312/76 20/246/75
f 19/251/241 54/52/51 23/267/257
f 7/90/87 56/76/74 8/75/73
f 32/271/260 40/313/45 43/314/42
f 39/41/41 32/315/260 43/42/42
f 25/28/28 59/58/57 205/31/31
f 2/263/253 50/3/3 5/91/88
f 26/29/29 59/58/57 162/162/156
f 52/51/50 180/1/1 50/3/3
f 53/126/78 2/263/253 137/291/274
f 82/250/240 52/51/50 49/50/49
f 72/216/208 194/141/136 189/316/286
f 42/43/43 38/307/285 89/253/243
f 62/17/17 172/62/61 1/18/18
f 68/183/176 64/277/265 193/152/146
f 71/317/287 194/182/136 74/279/266
f 182/290/273 188/148/142 90/102/99
f 152/318/288 84/69/67 87/66/64
f 153/104/101 91/289/272 90/102/99
f 65/170/164 182/290/273 89/253/243
f 78/252/242 85/288/271 82/250/240
f 83/68/66 86/67/65 81/105/102
f 92/166/160 71/317/287 178/164/158
f 174/167/161 3/2/2 180/1/1
f 253/285/268 147/133/129 211/319/289
f 88/95/92 178/164/158 70/261/251
f 66/275/263 191/153/147 64/277/265
f 248/186/178 280/286/269 210/320/290
f 11/23/23 122/303/284 98/120/117
f 97/9/9 122/303/284 14/7/7
f 16/49/48 106/298/279 48/48/47
f 124/321/291 99/83/80 125/295/278
f 126/136/132 102/297/85 128/322/233
f 34/237/228 33/255/245 131/124/121
f 219/258/248 76/323/63 75/224/216
f 106/298/279 103/256/246 48/48/47
f 40/313/45 136/79/77 109/324/44
f 223/234/226 221/119/116 215/118/115
f 102/88/85 297/243/234 128/242/233
f 247/12/12 216/11/11 117/213/205
f 33/255/245 105/92/89 131/124/121
f 127/247/237 128/242/233 296/241/232
f 141/172/166 98/120/117 120/302/283
f 97/9/9 121/257/247 122/303/284
f 122/303/284 119/292/275 120/302/283
f 123/294/277 10/21/21 125/295/278
f 125/295/278 8/75/73 124/321/291
f 128/322/233 20/77/75 126/136/132
f 231/176/170 131/124/121 129/94/91
f 135/93/90 133/74/72 134/125/122
f 139/299/280 140/163/157 110/122/119
f 136/79/77 53/80/78 109/324/44
f 53/126/78 137/291/274 108/82/79
f 144/129/125 142/293/276 143/127/123
f 120/302/283 142/293/276 141/172/166
f 226/160/154 230/159/153 213/131/127
f 253/285/268 139/325/280 229/134/130
f 124/321/291 133/74/72 132/84/81
f 137/291/274 97/9/9 108/82/79
f 166/326/292 154/151/145 155/181/175
f 167/73/71 123/294/277 166/326/292
f 87/66/64 170/262/252 152/318/288
f 155/181/175 156/180/174 166/326/292
f 153/139/101 199/327/100 163/14/14
f 26/29/29 252/99/96 161/328/293
f 159/329/137 149/149/143 160/330/38
f 187/138/134 168/86/83 6/19/19
f 148/184/148 193/152/146 158/5/5
f 17/24/24 169/15/15 148/154/148
f 240/140/135 36/40/40 285/37/37
f 33/255/245 264/35/35 37/39/39
f 27/30/30 26/29/29 161/328/293
f 57/53/52 198/55/54 162/162/156
f 123/294/277 171/6/6 166/326/292
f 156/180/174 167/73/71 166/326/292
f 192/143/138 170/262/252 157/161/155
f 6/19/19 167/73/71 202/137/133
f 160/330/38 153/139/101 44/47/46
f 169/15/15 163/14/14 199/331/100
f 193/152/146 171/6/6 158/5/5
f 276/220/212 286/157/151 165/156/150
f 176/32/32 111/300/281 289/33/33
f 150/96/93 26/29/29 162/162/156
f 142/293/276 184/171/165 141/172/166
f 183/106/103 66/275/263 63/107/104
f 81/105/102 85/288/271 179/287/270
f 142/293/276 61/59/58 143/127/123
f 183/106/103 114/121/118 184/171/165
f 89/253/243 181/165/159 42/43/43
f 73/332/294 178/164/158 177/280/62
f 88/95/92 42/43/43 181/165/159
f 173/60/59 3/2/2 174/167/161
f 176/63/32 73/333/294 177/64/62
f 195/150/144 91/289/272 153/104/101
f 172/62/61 62/17/17 173/60/59
f 191/153/147 193/152/146 64/277/265
f 192/143/138 84/69/67 152/318/288
f 188/148/142 199/103/100 90/102/99
f 143/127/123 187/138/134 202/137/133
f 274/146/141 235/145/140 95/109/106
f 174/167/161 192/143/138 186/61/60
f 115/128/124 202/137/133 156/180/174
f 155/181/175 191/153/147 115/128/124
f 148/154/148 188/334/142 68/335/176
f 271/336/295 247/12/12 190/212/204
f 250/231/223 200/337/296 234/338/297
f 251/204/196 249/214/206 272/205/197
f 252/99/96 150/96/93 196/98/95
f 240/140/135 189/316/286 194/141/136
f 266/196/188 258/187/179 205/31/31
f 201/208/200 247/12/12 271/336/295
f 116/195/187 35/36/36 203/202/194
f 267/197/189 266/196/188 243/236/227
f 267/197/189 243/236/227 246/200/192
f 35/36/36 34/237/228 224/114/111
f 273/339/298 246/200/192 243/236/227
f 93/188/180 164/190/182 270/191/183
f 233/219/211 251/204/196 275/206/198
f 190/212/204 251/204/196 233/219/211
f 151/185/177 248/186/178 250/231/223
f 200/337/296 235/145/140 234/338/297
f 271/336/295 190/212/204 276/220/212
f 236/210/202 274/146/141 255/211/203
f 189/316/286 249/214/206 72/216/208
f 245/218/210 241/217/209 246/200/192
f 234/338/297 239/144/139 245/218/210
f 234/338/297 235/145/140 239/144/139
f 273/339/298 234/338/297 245/218/210
f 240/140/135 214/194/186 272/205/197
f 250/231/223 273/339/298 151/185/177
f 243/236/227 161/328/293 151/185/177
f 243/236/227 151/185/177 273/339/298
f 249/214/206 240/140/135 272/205/197
f 238/158/152 225/155/149 230/159/153
f 197/101/98 161/328/293 252/99/96
f 233/219/211 276/220/212 190/212/204
f 237/209/201 271/336/295 225/155/149
f 201/208/200 271/336/295 237/209/201
f 236/210/202 239/144/139 274/146/141
f 214/194/186 275/206/198 272/205/197
f 286/157/151 233/219/211 275/206/198
f 146/10/10 256/207/199 255/211/203
f 271/336/295 276/220/212 225/155/149
f 236/210/202 237/209/201 238/158/152
f 277/223/215 204/198/190 145/132/128
f 147/133/129 227/229/221 281/228/220
f 147/133/129 253/285/268 229/134/130
f 139/340/280 223/234/226 118/233/225
f 227/229/221 228/135/131 255/211/203
f 226/160/154 213/131/127 254/130/126
f 213/131/127 262/222/214 145/132/128
f 253/285/268 210/320/290 280/286/269
f 208/215/207 278/117/114 221/119/116
f 278/117/114 117/213/205 215/118/115
f 279/225/217 75/224/216 72/216/208
f 282/110/107 200/337/296 212/70/68
f 228/135/131 229/134/130 232/232/224
f 118/233/225 232/232/224 229/134/130
f 281/228/220 211/319/289 147/133/129
f 96/72/70 211/319/289 281/228/220
f 282/110/107 95/109/106 235/145/140
f 200/337/296 209/235/222 212/70/68
f 283/221/213 230/159/153 225/155/149
f 208/215/207 249/214/206 251/204/196
f 190/212/204 208/215/207 251/204/196
f 217/100/97 196/98/95 80/97/94
f 228/135/131 232/232/224 146/10/10
f 284/71/69 211/319/289 96/72/70
f 216/11/11 232/232/224 215/118/115
f 215/118/115 232/232/224 223/234/226
f 255/211/203 96/72/70 227/229/221
f 286/157/151 261/116/113 283/221/213
f 261/116/113 213/131/127 283/221/213
f 238/158/152 241/217/209 239/144/139
f 226/160/154 254/130/126 241/217/209
f 118/233/225 229/134/130 139/325/280
f 209/230/222 210/320/290 284/71/69
f 292/240/231 289/33/33 290/123/120
f 72/216/208 208/215/207 279/225/217
f 221/119/116 279/225/217 208/215/207
f 116/195/187 285/37/37 35/36/36
f 201/208/200 146/10/10 247/12/12
f 223/234/226 219/258/248 222/226/218
f 224/114/111 131/124/121 263/115/112
f 197/101/98 217/100/97 248/186/178
f 294/239/230 291/87/84 292/240/231
f 288/245/236 292/240/231 291/87/84
f 287/34/34 289/33/33 288/245/236
f 287/310/34 73/333/294 176/63/32
f 293/238/229 297/243/234 291/87/84
f 293/238/229 296/241/232 297/243/234
f 298/244/235 291/87/84 101/89/86
f 298/244/235 287/34/34 288/245/236
f 101/89/86 295/249/239 298/244/235
f 99/83/80 124/321/291 132/84/81
f 11/23/23 98/120/117 112/108/105
f 82/250/240 49/50/49 19/251/241
f 89/253/243 38/307/285 12/254/244
f 1/18/18 119/292/275 121/257/247
f 136/79/77 40/313/45 29/259/249
f 28/260/250 39/41/41 88/95/92
f 7/90/87 157/161/155 170/262/252
f 4/16/16 5/91/88 3/2/2
f 9/20/20 7/90/87 8/75/73
f 14/7/7 13/304/22 12/254/244
f 22/265/255 24/248/238 18/113/110
f 22/265/255 21/266/256 19/251/241
f 22/265/255 23/267/257 20/246/75
f 31/268/258 32/315/260 28/260/250
f 31/270/258 295/311/239 29/259/249
f 36/40/40 37/39/39 264/35/35
f 109/272/44 107/305/8 41/273/261
f 41/273/261 38/307/285 42/43/43
f 50/3/3 2/263/253 53/126/78
f 53/126/78 51/312/76 54/52/51
f 58/57/56 57/53/52 162/162/156
f 55/56/55 56/76/74 60/54/53
f 175/168/162 63/107/104 66/275/263
f 67/276/264 66/275/263 64/277/265
f 68/183/176 188/148/142 69/169/163
f 178/164/158 71/317/287 74/279/266
f 177/281/62 74/341/266 72/282/208
f 79/284/267 140/163/157 253/285/268
f 80/97/94 79/284/267 280/286/269
f 80/97/94 150/96/93 81/105/102
f 179/287/270 77/112/109 79/284/267
f 84/69/67 180/1/1 85/288/271
f 181/165/159 90/102/99 91/289/272
f 4/16/16 121/257/247 137/291/274
f 119/292/275 1/18/18 172/62/61
f 18/113/110 24/248/238 127/247/237
f 134/125/122 133/74/72 56/76/74
f 135/93/90 105/92/89 103/256/246
f 139/299/280 110/122/119 111/300/281
f 115/128/124 191/153/147 113/301/282
f 113/301/282 183/106/103 184/171/165
f 168/86/83 157/161/155 7/90/87
f 17/24/24 100/4/4 99/83/80
f 13/304/22 175/168/162 65/170/164
f 11/23/23 63/107/104 175/168/162
f 15/264/254 41/273/261 107/305/8
f 38/307/285 41/273/261 15/264/254
f 37/39/39 46/274/262 48/48/47
f 44/47/46 46/274/262 37/39/39
f 295/308/239 31/342/258 30/309/259
f 70/261/251 73/332/294 30/269/259
f 126/136/132 29/259/249 295/311/239
f 55/56/55 25/28/28 130/27/27
f 21/266/256 179/287/270 78/252/242
f 77/112/109 179/287/270 21/266/256
f 23/267/257 54/52/51 51/312/76
f 19/251/241 49/50/49 54/52/51
f 7/90/87 60/54/53 56/76/74
f 32/271/260 29/259/249 40/313/45
f 39/41/41 28/260/250 32/315/260
f 25/28/28 55/56/55 59/58/57
f 26/29/29 205/31/31 59/58/57
f 52/51/50 85/288/271 180/1/1
f 82/250/240 85/288/271 52/51/50
f 72/216/208 74/343/266 194/141/136
f 71/317/287 195/150/144 194/182/136
f 182/290/273 69/169/163 188/148/142
f 65/170/164 69/169/163 182/290/273
f 78/252/242 179/287/270 85/288/271
f 92/166/160 91/289/272 71/317/287
f 88/95/92 181/165/159 178/164/158
f 66/275/263 113/301/282 191/153/147
f 248/186/178 217/100/97 280/286/269
f 11/23/23 14/7/7 122/303/284
f 16/49/48 104/85/82 106/298/279
f 219/258/248 111/300/281 76/323/63
f 223/234/226 222/226/218 221/119/116
f 102/88/85 291/87/84 297/243/234
f 33/255/245 103/256/246 105/92/89
f 296/241/232 293/238/229 127/247/237
f 293/238/229 138/111/108 127/247/237
f 141/172/166 114/121/118 98/120/117
f 97/9/9 137/291/274 121/257/247
f 122/303/284 121/257/247 119/292/275
f 123/294/277 167/73/71 10/21/21
f 125/295/278 10/21/21 8/75/73
f 128/322/233 127/344/237 20/77/75
f 231/176/170 277/223/215 131/124/121
f 135/93/90 132/84/81 133/74/72
f 139/299/280 253/285/268 140/163/157
f 144/129/125 184/171/165 142/293/276
f 120/302/283 119/292/275 142/293/276
f 124/321/291 8/75/73 133/74/72
f 166/326/292 171/6/6 154/151/145
f 87/66/64 198/55/54 170/262/252
f 26/29/29 150/96/93 252/99/96
f 159/329/137 194/182/136 149/149/143
f 187/138/134 186/61/60 168/86/83
f 17/24/24 45/13/13 169/15/15
f 240/140/135 159/142/137 36/40/40
f 33/255/245 34/237/228 264/35/35
f 123/294/277 100/4/4 171/6/6
f 156/180/174 202/137/133 167/73/71
f 192/143/138 152/318/288 170/262/252
f 160/330/38 149/149/143 153/139/101
f 193/152/146 154/151/145 171/6/6
f 176/32/32 76/323/63 111/300/281
f 183/106/103 113/301/282 66/275/263
f 81/105/102 86/67/65 85/288/271
f 142/293/276 172/62/61 61/59/58
f 183/106/103 112/108/105 114/121/118
f 89/253/243 182/290/273 181/165/159
f 73/332/294 70/261/251 178/164/158
f 173/60/59 62/17/17 3/2/2
f 195/150/144 71/317/287 91/289/272
f 192/143/138 174/167/161 84/69/67
f 143/127/123 61/59/58 187/138/134
f 115/128/124 143/127/123 202/137/133
f 155/181/175 154/151/145 191/153/147
f 148/154/148 169/345/15 188/334/142
f 266/196/188 269/179/173 258/187/179
f 35/36/36 264/35/35 34/237/228
f 273/339/298 245/218/210 246/200/192
f 273/339/298 250/231/223 234/338/297
f 243/236/227 27/30/30 161/328/293
f 249/214/206 189/316/286 240/140/135
f 197/101/98 151/185/177 161/328/293
f 214/194/186 164/190/182 275/206/198
f 146/10/10 201/208/200 256/207/199
f 277/223/215 231/176/170 204/198/190
f 147/133/129 228/135/131 227/229/221
f 139/340/280 219/258/248 223/234/226
f 253/285/268 211/319/289 210/320/290
f 282/110/107 235/145/140 200/337/296
f 200/337/296 250/231/223 209/235/222
f 283/221/213 213/131/127 230/159/153
f 217/100/97 252/99/96 196/98/95
f 284/71/69 210/320/290 211/319/289
f 209/230/222 248/186/178 210/320/290
f 292/240/231 288/245/236 289/33/33
f 294/239/230 293/238/229 291/87/84
f 287/310/34 30/309/259 73/333/294
usemtl whiskers
f 305/346/299 304/347/300 307/348/301
f 306/349/302 304/347/300 300/350/303
f 301/351/304 307/348/301 306/349/302
f 299/352/305 307/348/301 303/353/306
f 313/354/307 314/355/308 316/356/309
f 315/357/310 313/354/307 316/356/309
f 310/358/311 316/356/309 312/359/312
f 316/356/309 314/355/308 308/360/313
f 312/359/312 316/356/309 308/360/313
f 305/346/299 302/361/314 304/347/300
f 306/349/302 307/348/301 304/347/300
f 301/351/304 303/353/306 307/348/301
f 299/352/305 305/346/299 307/348/301
f 313/354/307 311/362/315 314/355/308
f 315/357/310 309/363/316 313/354/307
f 310/358/311 315/357/310 316/356/309
